<?xml version="1.0" standalone="no"?>
<!DOCTYPE svg PUBLIC "-//W3C//DTD SVG 20010904//EN"
 "http://www.w3.org/TR/2001/REC-SVG-20010904/DTD/svg10.dtd">
<svg version="1.0" xmlns="http://www.w3.org/2000/svg"
 width="512.000000pt" height="512.000000pt" viewBox="0 0 512.000000 512.000000"
 preserveAspectRatio="xMidYMid meet">

<g transform="translate(0.000000,512.000000) scale(0.100000,-0.100000)"
fill="#000000" stroke="none">
<path d="M1636 4940 c-114 -41 -195 -118 -235 -223 -49 -134 -66 -405 -35
-588 32 -190 118 -398 229 -554 66 -93 147 -178 302 -317 103 -92 118 -110
172 -207 33 -58 82 -141 110 -184 l51 -77 -69 -173 c-38 -94 -72 -182 -76
-195 -9 -32 11 -77 41 -91 35 -16 833 -16 868 0 13 7 30 25 37 41 11 26 5 46
-64 223 l-77 195 51 77 c28 43 77 126 110 184 54 97 69 115 172 207 61 55 142
131 179 169 179 184 307 439 353 707 30 176 13 450 -36 582 -41 109 -125 188
-238 224 -125 40 -222 19 -373 -78 l-95 -62 -453 0 -453 0 -93 60 c-112 73
-157 90 -249 96 -54 4 -83 0 -129 -16z m189 -154 c18 -8 67 -37 109 -65 63
-43 77 -57 85 -89 30 -115 41 -161 41 -174 0 -10 -48 -34 -137 -68 -268 -103
-255 -86 -218 -288 32 -175 74 -346 115 -475 17 -55 30 -101 27 -103 -6 -7
-88 92 -141 171 -141 209 -202 428 -194 695 6 185 26 272 75 330 63 73 158 99
238 66z m1623 -2 c83 -34 124 -99 147 -230 51 -294 -16 -614 -181 -859 -53
-79 -135 -178 -141 -171 -3 2 9 46 26 98 42 132 75 267 111 457 44 227 59 204
-200 307 -80 31 -147 59 -149 61 -4 3 19 111 41 189 7 27 25 45 84 85 42 28
90 57 107 64 43 19 109 18 155 -1z m-530 -224 l-20 -80 -338 0 -338 0 -20 80
-20 80 378 0 378 0 -20 -80z m182 -301 c85 -34 158 -65 163 -69 10 -8 -43
-272 -83 -412 -71 -254 -213 -572 -352 -793 l-63 -100 -205 0 -205 0 -63 100
c-78 124 -228 426 -277 558 -20 54 -52 153 -71 220 -39 136 -98 417 -89 426 4
3 75 33 158 67 l152 62 390 1 390 1 155 -61z m-311 -1646 c24 -60 45 -114 48
-120 4 -10 -55 -13 -277 -13 -222 0 -281 3 -277 13 3 6 24 60 48 120 l42 107
187 0 187 0 42 -107z"/>
<path d="M2481 4146 c-114 -41 -183 -176 -150 -293 18 -66 96 -144 162 -162
151 -43 307 76 307 235 0 57 -24 109 -75 159 -70 71 -157 93 -244 61z m113
-157 c13 -7 30 -25 37 -42 15 -36 -1 -73 -42 -96 -58 -32 -126 35 -100 98 19
44 60 60 105 40z"/>
<path d="M2320 3440 l0 -80 240 0 240 0 0 80 0 80 -240 0 -240 0 0 -80z"/>
<path d="M1322 2870 c-12 -5 -27 -21 -32 -35 -6 -16 -10 -175 -10 -390 l0
-364 -300 -3 c-271 -3 -301 -5 -317 -21 -16 -15 -18 -41 -21 -197 l-3 -180 80
0 81 0 0 120 0 120 520 0 520 0 0 -120 0 -120 80 0 80 0 0 165 c0 175 -6 206
-47 224 -15 7 -111 11 -268 11 l-245 0 0 320 0 320 280 0 280 0 0 80 0 80
-327 -1 c-181 0 -338 -4 -351 -9z"/>
<path d="M3120 2800 l0 -80 280 0 280 0 0 -320 0 -319 -260 -3 c-233 -3 -261
-5 -277 -21 -16 -15 -18 -41 -21 -197 l-3 -180 80 0 81 0 0 120 0 120 520 0
520 0 0 -120 0 -120 80 0 80 0 0 165 c0 175 -6 206 -47 224 -16 7 -121 11
-308 11 l-285 0 0 365 c0 245 -4 372 -11 388 -20 44 -41 47 -384 47 l-325 0 0
-80z"/>
<path d="M495 1434 c-116 -47 -215 -87 -222 -90 -19 -9 -31 -53 -49 -174 -40
-276 23 -522 185 -721 83 -103 261 -276 293 -284 40 -10 72 13 189 132 137
139 184 199 236 298 91 176 120 360 89 575 -21 141 -29 165 -69 184 -66 31
-415 166 -428 165 -8 0 -108 -38 -224 -85z"/>
<path d="M1695 1434 c-115 -47 -215 -87 -222 -90 -19 -9 -31 -53 -49 -174 -40
-276 23 -522 185 -721 83 -103 261 -276 293 -284 40 -10 72 13 189 132 137
139 184 199 236 298 91 176 120 360 89 575 -21 141 -29 165 -69 184 -66 31
-415 166 -428 165 -8 0 -108 -38 -224 -85z"/>
<path d="M2975 1434 c-115 -47 -215 -87 -222 -90 -19 -9 -31 -53 -49 -174 -40
-276 23 -522 185 -721 83 -103 261 -276 293 -284 40 -10 72 13 189 132 137
139 184 199 236 298 91 176 120 360 89 575 -21 141 -29 165 -69 184 -66 31
-415 166 -428 165 -8 0 -108 -38 -224 -85z m390 -148 l160 -64 13 -84 c41
-268 -39 -488 -257 -703 l-81 -80 -81 80 c-218 215 -298 436 -257 703 l13 82
155 64 c85 35 160 64 165 65 6 1 82 -28 170 -63z"/>
<path d="M4175 1434 c-115 -47 -215 -87 -222 -90 -19 -9 -31 -53 -49 -174 -40
-276 23 -522 185 -721 83 -103 261 -276 293 -284 40 -10 72 13 189 132 137
139 184 199 236 298 91 176 120 360 89 575 -21 141 -29 165 -69 184 -66 31
-415 166 -428 165 -8 0 -108 -38 -224 -85z m390 -148 l160 -64 13 -84 c41
-268 -39 -488 -257 -703 l-81 -80 -81 80 c-218 215 -298 436 -257 703 l13 82
155 64 c85 35 160 64 165 65 6 1 82 -28 170 -63z"/>
</g>
</svg>
